<svg xmlns="http://www.w3.org/2000/svg" xmlns:xlink="http://www.w3.org/1999/xlink" zoomAndPan="magnify" preserveAspectRatio="xMidYMid meet" version="1.2" viewBox="42.39 296.18 707.52 217.18"><defs><clipPath id="8a67b48f31"><path d="M 125 296.179688 L 231 296.179688 L 231 419 L 125 419 Z M 125 296.179688 "/></clipPath><clipPath id="0f40f8eb06"><path d="M 82 446 L 231 446 L 231 513.679688 L 82 513.679688 Z M 82 446 "/></clipPath><clipPath id="990cbfe7a2"><path d="M 82 469 L 137 469 L 137 513.679688 L 82 513.679688 Z M 82 469 "/></clipPath><clipPath id="a22e16e048"><path d="M 136 446 L 231 446 L 231 513.679688 L 136 513.679688 Z M 136 446 "/></clipPath></defs><g id="b37af607f3"><g clip-rule="nonzero" clip-path="url(#8a67b48f31)"><path style=" stroke:none;fill-rule:nonzero;fill:#2ecc71;fill-opacity:1;" d="M 183.441406 323.324219 L 136.421875 296.179688 L 125.558594 302.453125 L 219.601562 356.753906 L 219.601562 418.480469 L 230.460938 412.210938 L 230.460938 350.472656 Z M 183.441406 323.324219 "/></g><path style=" stroke:none;fill-rule:nonzero;fill:#2ecc71;fill-opacity:1;" d="M 189.890625 443.863281 L 189.890625 373.890625 L 186.851562 372.132812 L 177 366.453125 L 166.125 372.730469 L 179.042969 380.1875 L 179.042969 420.300781 C 179.660156 420.632812 180.222656 421.046875 180.730469 421.53125 C 181.238281 422.019531 181.671875 422.5625 182.035156 423.167969 C 182.394531 423.773438 182.667969 424.414062 182.855469 425.09375 C 183.039062 425.769531 183.132812 426.460938 183.132812 427.164062 C 183.132812 427.867188 183.039062 428.558594 182.855469 429.238281 C 182.667969 429.914062 182.394531 430.558594 182.035156 431.160156 C 181.671875 431.765625 181.238281 432.3125 180.730469 432.796875 C 180.222656 433.285156 179.660156 433.695312 179.042969 434.03125 L 179.042969 467.457031 L 230.464844 437.769531 L 230.464844 425.210938 L 189.890625 448.632812 Z M 189.890625 443.863281 "/><path style=" stroke:none;fill-rule:nonzero;fill:#2ecc71;fill-opacity:1;" d="M 95.855469 319.601562 L 89.40625 323.324219 L 42.386719 350.472656 L 42.386719 459.058594 L 53.257812 465.335938 L 53.261719 356.75 L 106.730469 325.878906 Z M 95.855469 319.601562 "/><path style=" stroke:none;fill-rule:nonzero;fill:#2ecc71;fill-opacity:1;" d="M 171.4375 420.316406 L 171.4375 384.53125 L 158.550781 377.09375 L 147.679688 383.371094 L 148.390625 383.785156 L 160.582031 390.824219 L 160.582031 465.558594 L 136.429688 479.511719 L 82.953125 448.628906 L 82.953125 461.222656 L 136.421875 492.058594 L 171.4375 471.84375 L 171.4375 434.015625 C 170.824219 433.679688 170.265625 433.265625 169.761719 432.78125 C 169.261719 432.292969 168.832031 431.75 168.472656 431.148438 C 168.117188 430.542969 167.847656 429.90625 167.660156 429.230469 C 167.476562 428.554688 167.382812 427.867188 167.382812 427.167969 C 167.382812 426.46875 167.476562 425.78125 167.660156 425.109375 C 167.847656 424.433594 168.117188 423.792969 168.472656 423.191406 C 168.832031 422.589844 169.261719 422.046875 169.761719 421.558594 C 170.265625 421.074219 170.824219 420.660156 171.4375 420.324219 Z M 171.4375 420.316406 "/><g clip-rule="nonzero" clip-path="url(#0f40f8eb06)"><path style=" stroke:none;fill-rule:nonzero;fill:#2ecc71;fill-opacity:1;" d="M 82.953125 469.949219 L 82.953125 482.480469 L 89.40625 486.214844 L 136.421875 513.355469 L 183.433594 486.214844 L 230.449219 459.066406 L 230.449219 446.511719 C 199.980469 464.089844 166.464844 483.449219 136.410156 500.792969 Z M 82.953125 469.949219 "/></g><path style=" stroke:none;fill-rule:nonzero;fill:#2ecc71;fill-opacity:1;" d="M 136.421875 445.214844 L 149.324219 437.769531 L 149.324219 425.210938 L 143.980469 428.300781 L 136.425781 432.65625 L 128.867188 428.300781 L 72.703125 395.867188 L 71.699219 395.296875 L 71.699219 367.394531 L 125.164062 336.523438 L 114.292969 330.246094 L 60.828125 361.113281 L 60.828125 401.5625 L 93.570312 420.460938 C 94.164062 420.09375 94.796875 419.8125 95.46875 419.617188 C 96.140625 419.417969 96.824219 419.3125 97.523438 419.296875 C 98.222656 419.285156 98.910156 419.363281 99.585938 419.53125 C 100.265625 419.703125 100.910156 419.960938 101.519531 420.300781 C 102.128906 420.644531 102.679688 421.0625 103.179688 421.550781 C 103.675781 422.042969 104.101562 422.589844 104.453125 423.195312 C 104.804688 423.800781 105.070312 424.4375 105.25 425.113281 C 105.429688 425.789062 105.515625 426.476562 105.511719 427.175781 C 105.511719 427.234375 105.496094 427.289062 105.496094 427.34375 Z M 136.421875 445.214844 "/><path style=" stroke:none;fill-rule:nonzero;fill:#2ecc71;fill-opacity:1;" d="M 128.867188 462.144531 L 136.421875 466.5 L 143.976562 462.144531 L 149.324219 459.058594 L 149.324219 446.5 L 136.421875 453.945312 L 101.691406 433.894531 C 101.097656 434.261719 100.464844 434.542969 99.792969 434.742188 C 99.121094 434.9375 98.4375 435.046875 97.738281 435.058594 C 97.039062 435.074219 96.351562 434.996094 95.675781 434.824219 C 94.996094 434.65625 94.351562 434.398438 93.742188 434.054688 C 93.132812 433.714844 92.582031 433.296875 92.082031 432.804688 C 91.585938 432.316406 91.160156 431.769531 90.808594 431.164062 C 90.457031 430.558594 90.191406 429.917969 90.011719 429.246094 C 89.832031 428.570312 89.746094 427.882812 89.75 427.183594 C 89.75 427.125 89.765625 427.070312 89.765625 427.011719 L 60.824219 410.300781 L 60.824219 469.703125 L 71.699219 475.980469 L 71.699219 429.136719 L 82.847656 435.566406 L 90.402344 439.921875 Z M 128.867188 462.144531 "/><path style=" stroke:none;fill-rule:nonzero;fill:#2ecc71;fill-opacity:1;" d="M 147.679688 336.53125 L 129.917969 346.792969 L 82.886719 373.929688 L 82.886719 388.746094 L 93.8125 395.054688 L 93.8125 380.175781 L 128.566406 360.109375 C 128.566406 360.054688 128.546875 360.003906 128.546875 359.945312 C 128.542969 359.25 128.632812 358.5625 128.8125 357.886719 C 128.992188 357.214844 129.257812 356.574219 129.609375 355.96875 C 129.960938 355.367188 130.382812 354.820312 130.878906 354.328125 C 131.378906 353.839844 131.929688 353.421875 132.539062 353.082031 C 133.148438 352.738281 133.789062 352.480469 134.46875 352.3125 C 135.144531 352.140625 135.832031 352.0625 136.53125 352.074219 C 137.226562 352.085938 137.910156 352.191406 138.582031 352.386719 C 139.25 352.585938 139.882812 352.867188 140.480469 353.230469 L 169.414062 336.523438 L 117.972656 306.828125 L 107.105469 313.105469 L 136.417969 330.027344 Z M 147.679688 336.53125 "/><path style=" stroke:none;fill-rule:nonzero;fill:#2ecc71;fill-opacity:1;" d="M 212.007812 422.863281 L 212.007812 361.117188 L 177 340.898438 L 144.289062 359.773438 C 144.289062 359.832031 144.304688 359.878906 144.304688 359.9375 C 144.308594 360.636719 144.222656 361.324219 144.046875 362 C 143.867188 362.679688 143.601562 363.320312 143.25 363.925781 C 142.902344 364.53125 142.476562 365.078125 141.980469 365.570312 C 141.480469 366.0625 140.929688 366.480469 140.320312 366.824219 C 139.710938 367.167969 139.066406 367.425781 138.386719 367.597656 C 137.707031 367.769531 137.019531 367.847656 136.320312 367.832031 C 135.621094 367.820312 134.933594 367.714844 134.261719 367.515625 C 133.59375 367.320312 132.957031 367.039062 132.363281 366.671875 L 101.410156 384.539062 L 101.410156 399.441406 L 112.195312 405.664062 L 112.195312 390.859375 L 177 353.449219 L 201.152344 367.394531 L 201.152344 429.136719 Z M 212.007812 422.863281 "/><path style=" stroke:none;fill-rule:nonzero;fill:#2ecc71;fill-opacity:1;" d="M 93.8125 380.175781 L 93.820312 380.167969 L 82.957031 373.894531 L 82.882812 373.9375 L 82.882812 388.75 L 93.8125 395.0625 Z M 93.8125 380.175781 "/><path style=" stroke:none;fill-rule:nonzero;fill:#2ecc71;fill-opacity:1;" d="M 42.386719 350.472656 L 42.386719 459.058594 L 53.257812 465.335938 L 53.261719 356.75 Z M 42.386719 350.472656 "/><path style=" stroke:none;fill-rule:nonzero;fill:#2ecc71;fill-opacity:1;" d="M 112.199219 390.859375 L 112.269531 390.816406 L 101.410156 384.546875 L 101.410156 399.445312 L 112.195312 405.671875 Z M 112.199219 390.859375 "/><path style=" stroke:none;fill-rule:nonzero;fill:#2ecc71;fill-opacity:1;" d="M 82.953125 461.222656 L 136.421875 492.058594 L 136.421875 479.5 L 82.953125 448.628906 Z M 82.953125 461.222656 "/><path style=" stroke:none;fill-rule:nonzero;fill:#2ecc71;fill-opacity:1;" d="M 128.867188 428.300781 L 72.703125 395.867188 L 71.699219 395.296875 L 71.699219 367.386719 L 60.824219 361.113281 L 60.824219 401.5625 L 93.570312 420.464844 C 94.164062 420.097656 94.796875 419.816406 95.46875 419.617188 C 96.140625 419.421875 96.824219 419.316406 97.523438 419.300781 C 98.222656 419.285156 98.910156 419.363281 99.585938 419.535156 C 100.265625 419.707031 100.910156 419.960938 101.519531 420.304688 C 102.128906 420.648438 102.679688 421.0625 103.179688 421.554688 C 103.675781 422.042969 104.101562 422.59375 104.453125 423.195312 C 104.804688 423.800781 105.070312 424.441406 105.25 425.117188 C 105.429688 425.792969 105.515625 426.476562 105.511719 427.175781 C 105.511719 427.234375 105.496094 427.289062 105.496094 427.34375 L 136.433594 445.207031 L 136.433594 432.652344 Z M 128.867188 428.300781 "/><g clip-rule="nonzero" clip-path="url(#990cbfe7a2)"><path style=" stroke:none;fill-rule:nonzero;fill:#2ecc71;fill-opacity:1;" d="M 82.953125 469.949219 L 82.953125 482.480469 L 89.40625 486.203125 L 108.007812 496.941406 L 136.421875 513.347656 L 136.421875 500.789062 L 136.421875 500.792969 Z M 82.953125 469.949219 "/></g><path style=" stroke:none;fill-rule:nonzero;fill:#2ecc71;fill-opacity:1;" d="M 101.691406 433.894531 C 101.097656 434.261719 100.464844 434.542969 99.792969 434.742188 C 99.121094 434.9375 98.4375 435.046875 97.738281 435.058594 C 97.039062 435.074219 96.351562 434.996094 95.675781 434.824219 C 94.996094 434.65625 94.351562 434.398438 93.742188 434.054688 C 93.132812 433.714844 92.582031 433.296875 92.082031 432.804688 C 91.585938 432.316406 91.160156 431.769531 90.808594 431.164062 C 90.457031 430.558594 90.191406 429.917969 90.011719 429.246094 C 89.832031 428.570312 89.746094 427.882812 89.75 427.183594 C 89.75 427.125 89.765625 427.070312 89.765625 427.011719 L 60.824219 410.300781 L 60.824219 469.703125 L 71.699219 475.980469 L 71.699219 429.136719 L 82.847656 435.566406 L 90.402344 439.921875 L 128.867188 462.132812 L 136.425781 466.488281 L 136.425781 453.929688 Z M 101.691406 433.894531 "/><path style=" stroke:none;fill-rule:nonzero;fill:#2ecc71;fill-opacity:1;" d="M 219.601562 418.480469 L 230.460938 412.210938 L 230.460938 350.472656 L 219.589844 356.746094 L 219.601562 356.753906 Z M 219.601562 418.480469 "/><path style=" stroke:none;fill-rule:nonzero;fill:#2ecc71;fill-opacity:1;" d="M 149.324219 425.207031 L 143.980469 428.296875 L 136.421875 432.65625 L 136.421875 445.214844 L 149.324219 437.769531 Z M 149.324219 425.207031 "/><path style=" stroke:none;fill-rule:nonzero;fill:#2ecc71;fill-opacity:1;" d="M 143.980469 462.144531 L 149.324219 459.058594 L 149.324219 446.5 L 136.421875 453.945312 L 136.421875 466.503906 Z M 143.980469 462.144531 "/><path style=" stroke:none;fill-rule:nonzero;fill:#2ecc71;fill-opacity:1;" d="M 212.007812 361.125 L 201.144531 367.394531 L 201.144531 429.136719 L 212.007812 422.863281 Z M 212.007812 361.125 "/><path style=" stroke:none;fill-rule:nonzero;fill:#2ecc71;fill-opacity:1;" d="M 171.4375 434.015625 C 170.824219 433.679688 170.265625 433.265625 169.761719 432.78125 C 169.261719 432.292969 168.832031 431.75 168.472656 431.148438 C 168.117188 430.542969 167.847656 429.90625 167.660156 429.230469 C 167.476562 428.554688 167.382812 427.867188 167.382812 427.167969 C 167.382812 426.46875 167.476562 425.78125 167.660156 425.109375 C 167.847656 424.433594 168.117188 423.792969 168.472656 423.191406 C 168.832031 422.589844 169.261719 422.046875 169.761719 421.558594 C 170.265625 421.074219 170.824219 420.660156 171.4375 420.324219 L 171.4375 384.554688 L 160.574219 390.816406 L 160.574219 465.550781 L 136.417969 479.503906 L 136.417969 492.0625 L 171.433594 471.851562 Z M 171.4375 434.015625 "/><g clip-rule="nonzero" clip-path="url(#a22e16e048)"><path style=" stroke:none;fill-rule:nonzero;fill:#2ecc71;fill-opacity:1;" d="M 136.421875 513.347656 L 230.464844 459.054688 L 230.464844 446.5 C 200 464.089844 166.480469 483.449219 136.429688 500.789062 Z M 136.421875 513.347656 "/></g><g style="fill:#ffffff;fill-opacity:1;"><g transform="translate(248.557154, 444.198132)"><path style="stroke:none" d="M 11.25 -77.4375 L 35.90625 -77.4375 C 46.632812 -77.4375 54.210938 -76.476562 58.640625 -74.5625 C 63.066406 -72.644531 65.878906 -69.210938 67.078125 -64.265625 C 68.273438 -59.316406 68.875 -50.800781 68.875 -38.71875 C 68.875 -26.632812 68.273438 -18.113281 67.078125 -13.15625 C 65.878906 -8.207031 63.066406 -4.773438 58.640625 -2.859375 C 54.210938 -0.953125 46.632812 0 35.90625 0 L 11.25 0 Z M 34.328125 -9 C 43.109375 -9 49.015625 -9.46875 52.046875 -10.40625 C 55.085938 -11.34375 57.054688 -13.664062 57.953125 -17.375 C 58.859375 -21.09375 59.3125 -28.207031 59.3125 -38.71875 C 59.3125 -49.144531 58.84375 -56.234375 57.90625 -59.984375 C 56.96875 -63.734375 54.976562 -66.078125 51.9375 -67.015625 C 48.894531 -67.953125 43.023438 -68.421875 34.328125 -68.421875 L 20.9375 -68.421875 L 20.9375 -9 Z M 34.328125 -9 "/></g></g><g style="fill:#2ecc71;fill-opacity:1;"><g transform="translate(326.100118, 444.198132)"><path style="stroke:none" d="M 63.8125 0 L 55.828125 -20.59375 L 20.9375 -20.59375 L 12.9375 0 L 3.15625 0 L 32.40625 -77.4375 L 44.5625 -77.4375 L 73.828125 0 Z M 38.609375 -66.96875 L 38.046875 -66.96875 L 23.859375 -29.71875 L 52.78125 -29.71875 Z M 38.609375 -66.96875 "/></g></g><g style="fill:#ffffff;fill-opacity:1;"><g transform="translate(403.080587, 444.198132)"><path style="stroke:none" d="M 9.796875 -57.40625 L 17.890625 -57.40625 L 18.34375 -46.484375 L 19.015625 -46.484375 C 20.367188 -50.984375 22.617188 -54.078125 25.765625 -55.765625 C 28.921875 -57.453125 33.050781 -58.296875 38.15625 -58.296875 L 38.15625 -48.5 C 32.976562 -48.5 29 -47.710938 26.21875 -46.140625 C 23.445312 -44.566406 21.535156 -42.144531 20.484375 -38.875 C 19.429688 -35.613281 18.90625 -31.207031 18.90625 -25.65625 L 18.90625 0 L 9.796875 0 Z M 9.796875 -57.40625 "/></g></g><g style="fill:#ffffff;fill-opacity:1;"><g transform="translate(444.380973, 444.198132)"><path style="stroke:none" d="M 14.515625 0 L 14.515625 -49.078125 L 2.921875 -49.078125 L 2.921875 -57.40625 L 14.515625 -57.40625 L 14.515625 -74.0625 L 23.640625 -74.0625 L 23.640625 -57.40625 L 37.359375 -57.40625 L 37.359375 -49.078125 L 23.640625 -49.078125 L 23.640625 0 Z M 14.515625 0 "/></g></g><g style="fill:#ffffff;fill-opacity:1;"><g transform="translate(484.218347, 444.198132)"><path style="stroke:none" d="M 55.703125 -25.4375 L 16.4375 -25.4375 C 16.4375 -19.957031 16.8125 -16.050781 17.5625 -13.71875 C 18.3125 -11.394531 19.941406 -9.765625 22.453125 -8.828125 C 24.960938 -7.890625 29.179688 -7.421875 35.109375 -7.421875 C 40.890625 -7.421875 47.003906 -7.835938 53.453125 -8.671875 L 53.453125 -0.671875 C 51.054688 -0.222656 47.941406 0.148438 44.109375 0.453125 C 40.285156 0.753906 36.648438 0.90625 33.203125 0.90625 C 25.472656 0.90625 19.785156 0.00390625 16.140625 -1.796875 C 12.503906 -3.597656 10.125 -6.488281 9 -10.46875 C 7.875 -14.445312 7.3125 -20.488281 7.3125 -28.59375 C 7.3125 -36.539062 7.816406 -42.503906 8.828125 -46.484375 C 9.847656 -50.460938 12.140625 -53.425781 15.703125 -55.375 C 19.265625 -57.320312 24.910156 -58.296875 32.640625 -58.296875 C 39.835938 -58.296875 45.050781 -57.335938 48.28125 -55.421875 C 51.507812 -53.515625 53.550781 -50.628906 54.40625 -46.765625 C 55.269531 -42.898438 55.703125 -36.878906 55.703125 -28.703125 Z M 32.40625 -49.96875 C 27.53125 -49.96875 24.023438 -49.535156 21.890625 -48.671875 C 19.753906 -47.804688 18.328125 -46.191406 17.609375 -43.828125 C 16.898438 -41.472656 16.507812 -37.664062 16.4375 -32.40625 L 46.9375 -32.40625 L 46.9375 -33.3125 C 46.9375 -38.257812 46.503906 -41.894531 45.640625 -44.21875 C 44.773438 -46.550781 43.363281 -48.09375 41.40625 -48.84375 C 39.457031 -49.59375 36.457031 -49.96875 32.40625 -49.96875 Z M 32.40625 -49.96875 "/></g></g><g style="fill:#ffffff;fill-opacity:1;"><g transform="translate(547.238016, 444.198132)"><path style="stroke:none" d="M 14.625 -49.078125 L 2.921875 -49.078125 L 2.921875 -57.40625 L 14.625 -57.40625 L 14.625 -65.953125 C 14.625 -71.359375 15.375 -75.296875 16.875 -77.765625 C 18.382812 -80.242188 20.710938 -81.820312 23.859375 -82.5 C 27.015625 -83.175781 31.929688 -83.515625 38.609375 -83.515625 L 38.609375 -75.96875 C 34.253906 -75.96875 31.0625 -75.757812 29.03125 -75.34375 C 27.007812 -74.9375 25.625 -74.171875 24.875 -73.046875 C 24.125 -71.921875 23.75 -70.117188 23.75 -67.640625 L 23.75 -57.40625 L 38.609375 -57.40625 L 38.609375 -49.078125 L 23.75 -49.078125 L 23.75 0 L 14.625 0 Z M 14.625 -49.078125 "/></g></g><g style="fill:#ffffff;fill-opacity:1;"><g transform="translate(587.975628, 444.198132)"><path style="stroke:none" d="M 25.09375 0.90625 C 18.488281 0.90625 13.6875 -0.3125 10.6875 -2.75 C 7.6875 -5.195312 6.1875 -9.53125 6.1875 -15.75 C 6.1875 -20.175781 6.710938 -23.628906 7.765625 -26.109375 C 8.816406 -28.585938 10.597656 -30.390625 13.109375 -31.515625 C 15.617188 -32.640625 19.164062 -33.203125 23.75 -33.203125 C 25.925781 -33.203125 33.09375 -33.015625 45.25 -32.640625 L 45.25 -36.015625 C 45.25 -40.515625 44.816406 -43.703125 43.953125 -45.578125 C 43.085938 -47.453125 41.507812 -48.648438 39.21875 -49.171875 C 36.9375 -49.703125 33.054688 -49.96875 27.578125 -49.96875 C 25.171875 -49.96875 22.148438 -49.835938 18.515625 -49.578125 C 14.878906 -49.316406 12.046875 -49.035156 10.015625 -48.734375 L 10.015625 -56.71875 C 15.941406 -57.769531 22.882812 -58.296875 30.84375 -58.296875 C 37.59375 -58.296875 42.632812 -57.601562 45.96875 -56.21875 C 49.3125 -54.832031 51.546875 -52.582031 52.671875 -49.46875 C 53.796875 -46.351562 54.359375 -41.832031 54.359375 -35.90625 L 54.359375 0 L 46.140625 0 L 45.6875 -7.984375 L 45.015625 -7.984375 C 43.441406 -4.390625 40.910156 -2.007812 37.421875 -0.84375 C 33.929688 0.320312 29.820312 0.90625 25.09375 0.90625 Z M 28.59375 -7.3125 C 32.34375 -7.3125 35.398438 -7.648438 37.765625 -8.328125 C 40.128906 -9.003906 41.832031 -10.316406 42.875 -12.265625 C 44.457031 -14.960938 45.25 -18.710938 45.25 -23.515625 L 45.25 -26.109375 L 26.109375 -26.109375 C 22.960938 -26.109375 20.65625 -25.882812 19.1875 -25.4375 C 17.726562 -24.988281 16.695312 -24.109375 16.09375 -22.796875 C 15.488281 -21.484375 15.1875 -19.4375 15.1875 -16.65625 C 15.1875 -13.957031 15.523438 -11.96875 16.203125 -10.6875 C 16.878906 -9.414062 18.132812 -8.535156 19.96875 -8.046875 C 21.8125 -7.554688 24.6875 -7.3125 28.59375 -7.3125 Z M 28.59375 -7.3125 "/></g></g><g style="fill:#ffffff;fill-opacity:1;"><g transform="translate(652.120628, 444.198132)"><path style="stroke:none" d="M 46.375 0 L 26.109375 -24.765625 L 18.90625 -24.765625 L 18.90625 0 L 9.796875 0 L 9.796875 -83.625 L 18.90625 -83.625 L 18.90625 -33.203125 L 26.109375 -33.203125 L 46.484375 -57.40625 L 56.71875 -57.40625 L 33.421875 -29.59375 L 57.0625 0 Z M 46.375 0 "/></g></g><g style="fill:#ffffff;fill-opacity:1;"><g transform="translate(712.551999, 444.198132)"><path style="stroke:none" d="M 14.515625 0 L 14.515625 -49.078125 L 2.921875 -49.078125 L 2.921875 -57.40625 L 14.515625 -57.40625 L 14.515625 -74.0625 L 23.640625 -74.0625 L 23.640625 -57.40625 L 37.359375 -57.40625 L 37.359375 -49.078125 L 23.640625 -49.078125 L 23.640625 0 Z M 14.515625 0 "/></g></g></g></svg>