<svg xmlns="http://www.w3.org/2000/svg" xmlns:xlink="http://www.w3.org/1999/xlink" width="1080" zoomAndPan="magnify" viewBox="0 0 810 809.999993" height="1080" preserveAspectRatio="xMidYMid meet" version="1.2"><defs><clipPath id="0f18d0cb75"><path d="M 228 542 L 718 542 L 718 764.992188 L 228 764.992188 Z M 228 542 "/></clipPath><clipPath id="a4d7db3757"><path d="M 228 620 L 407 620 L 407 764.992188 L 228 764.992188 Z M 228 620 "/></clipPath><clipPath id="9492418b6d"><path d="M 406 542 L 718 542 L 718 764.992188 L 406 764.992188 Z M 406 542 "/></clipPath></defs><g id="e31f019be0"><path style=" stroke:none;fill-rule:nonzero;fill:#2ecc71;fill-opacity:1;" d="M 561.722656 134.894531 L 406.03125 45.007812 L 370.050781 65.78125 L 681.46875 245.585938 L 681.46875 449.988281 L 717.421875 429.234375 L 717.421875 224.789062 Z M 561.722656 134.894531 "/><path style=" stroke:none;fill-rule:nonzero;fill:#2ecc71;fill-opacity:1;" d="M 583.085938 534.035156 L 583.085938 302.339844 L 573.023438 296.511719 L 540.398438 277.699219 L 504.382812 298.492188 L 547.15625 323.179688 L 547.15625 456.011719 C 548.179688 456.5625 549.15625 457.179688 550.09375 457.863281 C 551.03125 458.546875 551.917969 459.289062 552.753906 460.09375 C 553.589844 460.894531 554.371094 461.75 555.089844 462.65625 C 555.8125 463.566406 556.472656 464.515625 557.066406 465.511719 C 557.65625 466.507812 558.183594 467.539062 558.636719 468.605469 C 559.09375 469.671875 559.472656 470.765625 559.78125 471.882812 C 560.089844 473 560.320312 474.132812 560.476562 475.28125 C 560.632812 476.433594 560.710938 477.585938 560.710938 478.746094 C 560.710938 479.90625 560.632812 481.058594 560.476562 482.207031 C 560.320312 483.359375 560.089844 484.492188 559.78125 485.609375 C 559.472656 486.726562 559.09375 487.820312 558.636719 488.886719 C 558.183594 489.953125 557.65625 490.984375 557.0625 491.980469 C 556.472656 492.976562 555.8125 493.925781 555.089844 494.835938 C 554.371094 495.742188 553.589844 496.597656 552.753906 497.398438 C 551.917969 498.203125 551.03125 498.945312 550.09375 499.628906 C 549.15625 500.3125 548.179688 500.929688 547.15625 501.480469 L 547.15625 612.167969 L 717.445312 513.855469 L 717.445312 472.269531 L 583.078125 549.832031 Z M 583.085938 534.035156 "/><path style=" stroke:none;fill-rule:nonzero;fill:#2ecc71;fill-opacity:1;" d="M 271.695312 122.566406 L 250.339844 134.894531 L 94.640625 224.789062 L 94.640625 584.355469 L 130.640625 605.140625 L 130.652344 245.578125 L 307.707031 143.355469 Z M 271.695312 122.566406 "/><path style=" stroke:none;fill-rule:nonzero;fill:#2ecc71;fill-opacity:1;" d="M 521.976562 456.066406 L 521.976562 337.566406 L 479.3125 312.9375 L 443.308594 333.726562 L 445.65625 335.097656 L 486.035156 358.410156 L 486.035156 605.882812 L 406.050781 652.089844 L 228.976562 549.824219 L 228.976562 591.519531 L 406.027344 693.628906 L 521.976562 626.695312 L 521.976562 501.425781 C 520.96875 500.871094 519.996094 500.253906 519.070312 499.566406 C 518.140625 498.882812 517.261719 498.140625 516.433594 497.339844 C 515.605469 496.535156 514.832031 495.683594 514.117188 494.777344 C 513.402344 493.871094 512.75 492.921875 512.164062 491.929688 C 511.578125 490.9375 511.058594 489.910156 510.609375 488.847656 C 510.15625 487.789062 509.78125 486.699219 509.476562 485.589844 C 509.171875 484.476562 508.941406 483.347656 508.789062 482.203125 C 508.632812 481.0625 508.558594 479.914062 508.558594 478.761719 C 508.558594 477.605469 508.632812 476.457031 508.789062 475.316406 C 508.941406 474.171875 509.171875 473.046875 509.476562 471.933594 C 509.78125 470.820312 510.15625 469.734375 510.609375 468.671875 C 511.058594 467.609375 511.578125 466.582031 512.164062 465.589844 C 512.75 464.597656 513.402344 463.648438 514.117188 462.742188 C 514.832031 461.839844 515.605469 460.984375 516.433594 460.183594 C 517.261719 459.378906 518.140625 458.636719 519.070312 457.953125 C 519.996094 457.269531 520.96875 456.648438 521.976562 456.09375 Z M 521.976562 456.066406 "/><g clip-rule="nonzero" clip-path="url(#0f18d0cb75)"><path style=" stroke:none;fill-rule:nonzero;fill:#2ecc71;fill-opacity:1;" d="M 228.976562 620.417969 L 228.976562 661.914062 L 250.339844 674.277344 L 406.023438 764.160156 L 561.707031 674.277344 L 717.390625 584.386719 L 717.390625 542.808594 C 616.5 601.023438 505.511719 665.117188 405.992188 722.554688 Z M 228.976562 620.417969 "/></g><path style=" stroke:none;fill-rule:nonzero;fill:#2ecc71;fill-opacity:1;" d="M 406.03125 538.515625 L 448.75 513.855469 L 448.75 472.269531 L 431.054688 482.503906 L 406.039062 496.925781 L 381.007812 482.503906 L 195.03125 375.105469 L 191.699219 373.210938 L 191.699219 280.824219 L 368.746094 178.605469 L 332.746094 157.816406 L 155.707031 260.03125 L 155.707031 393.960938 L 264.128906 456.546875 C 265.113281 455.945312 266.128906 455.40625 267.179688 454.9375 C 268.234375 454.46875 269.3125 454.070312 270.417969 453.746094 C 271.523438 453.421875 272.644531 453.171875 273.78125 452.996094 C 274.921875 452.820312 276.066406 452.71875 277.21875 452.695312 C 278.371094 452.675781 279.519531 452.726562 280.664062 452.855469 C 281.808594 452.988281 282.9375 453.191406 284.054688 453.472656 C 285.175781 453.753906 286.269531 454.105469 287.339844 454.535156 C 288.410156 454.960938 289.445312 455.457031 290.449219 456.019531 C 291.453125 456.585938 292.417969 457.214844 293.335938 457.90625 C 294.257812 458.597656 295.128906 459.351562 295.949219 460.160156 C 296.769531 460.96875 297.53125 461.828125 298.238281 462.738281 C 298.945312 463.648438 299.585938 464.601562 300.164062 465.597656 C 300.742188 466.59375 301.253906 467.625 301.695312 468.6875 C 302.136719 469.753906 302.507812 470.839844 302.800781 471.953125 C 303.097656 473.066406 303.320312 474.195312 303.464844 475.339844 C 303.613281 476.480469 303.683594 477.628906 303.675781 478.78125 C 303.675781 478.972656 303.617188 479.152344 303.617188 479.335938 Z M 406.03125 538.515625 "/><path style=" stroke:none;fill-rule:nonzero;fill:#2ecc71;fill-opacity:1;" d="M 381.007812 594.574219 L 406.03125 608.996094 L 431.042969 594.574219 L 448.75 584.355469 L 448.75 542.773438 L 406.027344 567.421875 L 291.019531 501.035156 C 290.039062 501.640625 289.023438 502.175781 287.972656 502.644531 C 286.917969 503.113281 285.839844 503.511719 284.734375 503.835938 C 283.628906 504.160156 282.507812 504.410156 281.371094 504.585938 C 280.230469 504.761719 279.085938 504.863281 277.933594 504.886719 C 276.78125 504.910156 275.632812 504.855469 274.488281 504.726562 C 273.34375 504.597656 272.214844 504.390625 271.097656 504.109375 C 269.980469 503.828125 268.886719 503.476562 267.816406 503.050781 C 266.746094 502.625 265.707031 502.128906 264.703125 501.5625 C 263.699219 501 262.738281 500.371094 261.816406 499.679688 C 260.894531 498.984375 260.027344 498.234375 259.207031 497.425781 C 258.382812 496.617188 257.621094 495.757812 256.914062 494.847656 C 256.210938 493.9375 255.566406 492.984375 254.988281 491.988281 C 254.410156 490.992188 253.898438 489.960938 253.457031 488.898438 C 253.015625 487.832031 252.648438 486.746094 252.351562 485.632812 C 252.054688 484.519531 251.832031 483.390625 251.6875 482.25 C 251.539062 481.105469 251.46875 479.957031 251.476562 478.804688 C 251.476562 478.613281 251.53125 478.4375 251.53125 478.246094 L 155.703125 422.90625 L 155.703125 619.605469 L 191.699219 640.390625 L 191.699219 485.277344 L 228.625 506.570312 L 253.636719 520.996094 Z M 381.007812 594.574219 "/><path style=" stroke:none;fill-rule:nonzero;fill:#2ecc71;fill-opacity:1;" d="M 443.308594 178.628906 L 384.484375 212.605469 L 228.746094 302.46875 L 228.746094 351.527344 L 264.9375 372.421875 L 264.9375 323.144531 L 380.011719 256.699219 C 380.011719 256.519531 379.957031 256.34375 379.957031 256.164062 C 379.949219 255.011719 380.019531 253.863281 380.167969 252.722656 C 380.3125 251.582031 380.535156 250.457031 380.832031 249.34375 C 381.128906 248.230469 381.496094 247.144531 381.9375 246.082031 C 382.378906 245.019531 382.890625 243.988281 383.46875 242.992188 C 384.046875 242 384.6875 241.046875 385.390625 240.136719 C 386.097656 239.226562 386.859375 238.367188 387.679688 237.558594 C 388.5 236.75 389.367188 236 390.285156 235.308594 C 391.207031 234.617188 392.167969 233.988281 393.167969 233.421875 C 394.171875 232.859375 395.207031 232.363281 396.277344 231.9375 C 397.347656 231.507812 398.4375 231.15625 399.554688 230.875 C 400.671875 230.59375 401.800781 230.386719 402.945312 230.257812 C 404.085938 230.125 405.234375 230.070312 406.386719 230.09375 C 407.535156 230.113281 408.679688 230.210938 409.816406 230.386719 C 410.953125 230.558594 412.074219 230.808594 413.179688 231.132812 C 414.285156 231.457031 415.363281 231.851562 416.414062 232.316406 C 417.46875 232.785156 418.484375 233.320312 419.464844 233.921875 L 515.277344 178.605469 L 344.9375 80.269531 L 308.953125 101.042969 L 406.019531 157.085938 Z M 443.308594 178.628906 "/><path style=" stroke:none;fill-rule:nonzero;fill:#2ecc71;fill-opacity:1;" d="M 656.316406 464.507812 L 656.316406 260.039062 L 540.398438 193.089844 L 432.085938 255.59375 C 432.085938 255.777344 432.132812 255.941406 432.132812 256.128906 C 432.140625 257.28125 432.074219 258.429688 431.929688 259.574219 C 431.785156 260.71875 431.566406 261.851562 431.273438 262.964844 C 430.976562 264.078125 430.609375 265.171875 430.171875 266.238281 C 429.730469 267.304688 429.222656 268.335938 428.644531 269.332031 C 428.066406 270.332031 427.425781 271.289062 426.71875 272.199219 C 426.015625 273.113281 425.25 273.976562 424.429688 274.785156 C 423.609375 275.597656 422.742188 276.351562 421.820312 277.042969 C 420.898438 277.738281 419.9375 278.371094 418.933594 278.9375 C 417.929688 279.503906 416.890625 280 415.820312 280.429688 C 414.75 280.855469 413.652344 281.210938 412.535156 281.492188 C 411.417969 281.777344 410.285156 281.984375 409.136719 282.113281 C 407.992188 282.246094 406.84375 282.300781 405.691406 282.277344 C 404.535156 282.253906 403.390625 282.15625 402.25 281.980469 C 401.109375 281.804688 399.988281 281.554688 398.878906 281.230469 C 397.773438 280.90625 396.691406 280.507812 395.640625 280.039062 C 394.585938 279.570312 393.566406 279.03125 392.585938 278.429688 L 290.089844 337.59375 L 290.089844 386.949219 L 325.804688 407.554688 L 325.804688 358.523438 L 540.398438 234.644531 L 620.378906 280.824219 L 620.378906 485.269531 Z M 656.316406 464.507812 "/><path style=" stroke:none;fill-rule:nonzero;fill:#2ecc71;fill-opacity:1;" d="M 264.933594 323.144531 L 264.964844 323.121094 L 228.984375 302.347656 L 228.742188 302.484375 L 228.742188 351.542969 L 264.933594 372.4375 Z M 264.933594 323.144531 "/><path style=" stroke:none;fill-rule:nonzero;fill:#2ecc71;fill-opacity:1;" d="M 94.640625 224.789062 L 94.640625 584.355469 L 130.640625 605.140625 L 130.652344 245.578125 L 130.660156 245.578125 L 94.648438 224.789062 Z M 94.640625 224.789062 "/><path style=" stroke:none;fill-rule:nonzero;fill:#2ecc71;fill-opacity:1;" d="M 325.816406 358.523438 L 326.050781 358.382812 L 290.089844 337.621094 L 290.089844 386.957031 L 325.808594 407.574219 Z M 325.816406 358.523438 "/><path style=" stroke:none;fill-rule:nonzero;fill:#2ecc71;fill-opacity:1;" d="M 228.976562 591.519531 L 406.027344 693.628906 L 406.03125 693.628906 L 406.03125 652.046875 L 228.976562 549.824219 Z M 228.976562 591.519531 "/><path style=" stroke:none;fill-rule:nonzero;fill:#2ecc71;fill-opacity:1;" d="M 381.007812 482.503906 L 195.03125 375.105469 L 191.699219 373.210938 L 191.699219 280.800781 L 155.691406 260.019531 L 155.691406 393.972656 L 264.128906 456.550781 C 265.113281 455.949219 266.128906 455.414062 267.179688 454.945312 C 268.234375 454.476562 269.3125 454.078125 270.417969 453.753906 C 271.523438 453.429688 272.644531 453.179688 273.78125 453.003906 C 274.921875 452.828125 276.066406 452.726562 277.21875 452.703125 C 278.371094 452.683594 279.519531 452.734375 280.664062 452.863281 C 281.808594 452.996094 282.9375 453.199219 284.054688 453.480469 C 285.171875 453.761719 286.265625 454.117188 287.335938 454.542969 C 288.40625 454.96875 289.445312 455.464844 290.449219 456.027344 C 291.453125 456.59375 292.414062 457.222656 293.335938 457.914062 C 294.253906 458.605469 295.125 459.359375 295.945312 460.167969 C 296.765625 460.976562 297.53125 461.835938 298.234375 462.746094 C 298.941406 463.65625 299.582031 464.609375 300.164062 465.605469 C 300.742188 466.601562 301.25 467.628906 301.695312 468.695312 C 302.136719 469.757812 302.503906 470.847656 302.800781 471.960938 C 303.097656 473.074219 303.320312 474.199219 303.464844 475.34375 C 303.613281 476.484375 303.683594 477.632812 303.675781 478.785156 C 303.675781 478.980469 303.617188 479.160156 303.617188 479.34375 L 406.070312 538.496094 L 406.070312 496.914062 Z M 381.007812 482.503906 "/><g clip-rule="nonzero" clip-path="url(#a4d7db3757)"><path style=" stroke:none;fill-rule:nonzero;fill:#2ecc71;fill-opacity:1;" d="M 228.976562 620.417969 L 228.976562 661.914062 L 250.339844 674.242188 L 311.941406 709.804688 L 406.03125 764.128906 L 406.03125 722.546875 L 406.027344 722.554688 Z M 228.976562 620.417969 "/></g><path style=" stroke:none;fill-rule:nonzero;fill:#2ecc71;fill-opacity:1;" d="M 291.019531 501.035156 C 290.039062 501.640625 289.023438 502.175781 287.972656 502.644531 C 286.917969 503.113281 285.839844 503.511719 284.734375 503.835938 C 283.628906 504.160156 282.507812 504.410156 281.371094 504.585938 C 280.230469 504.761719 279.085938 504.863281 277.933594 504.886719 C 276.78125 504.910156 275.632812 504.855469 274.488281 504.726562 C 273.34375 504.597656 272.214844 504.390625 271.097656 504.109375 C 269.980469 503.828125 268.886719 503.476562 267.816406 503.050781 C 266.746094 502.625 265.707031 502.128906 264.703125 501.5625 C 263.699219 501 262.738281 500.371094 261.816406 499.679688 C 260.894531 498.984375 260.027344 498.234375 259.207031 497.425781 C 258.382812 496.617188 257.621094 495.757812 256.914062 494.847656 C 256.210938 493.9375 255.566406 492.984375 254.988281 491.988281 C 254.410156 490.992188 253.898438 489.960938 253.457031 488.898438 C 253.015625 487.832031 252.648438 486.746094 252.351562 485.632812 C 252.054688 484.519531 251.832031 483.390625 251.6875 482.25 C 251.539062 481.105469 251.46875 479.957031 251.476562 478.804688 C 251.476562 478.613281 251.53125 478.4375 251.53125 478.246094 L 155.703125 422.90625 L 155.703125 619.605469 L 191.699219 640.390625 L 191.699219 485.277344 L 228.625 506.570312 L 253.636719 520.996094 L 381.015625 594.53125 L 406.035156 608.957031 L 406.035156 567.375 Z M 291.019531 501.035156 "/><path style=" stroke:none;fill-rule:nonzero;fill:#2ecc71;fill-opacity:1;" d="M 681.46875 449.988281 L 717.421875 429.234375 L 717.421875 224.789062 L 681.433594 245.5625 L 681.46875 245.585938 Z M 681.46875 449.988281 "/><path style=" stroke:none;fill-rule:nonzero;fill:#2ecc71;fill-opacity:1;" d="M 448.75 472.265625 L 431.054688 482.488281 L 406.03125 496.933594 L 406.03125 538.515625 L 448.75 513.855469 Z M 448.75 472.265625 "/><path style=" stroke:none;fill-rule:nonzero;fill:#2ecc71;fill-opacity:1;" d="M 431.054688 594.574219 L 448.75 584.355469 L 448.75 542.773438 L 406.027344 567.429688 L 406.027344 609.011719 L 406.03125 609.011719 Z M 431.054688 594.574219 "/><path style=" stroke:none;fill-rule:nonzero;fill:#2ecc71;fill-opacity:1;" d="M 656.316406 260.0625 L 620.355469 280.824219 L 620.355469 485.269531 L 656.316406 464.507812 Z M 656.316406 260.0625 "/><path style=" stroke:none;fill-rule:nonzero;fill:#2ecc71;fill-opacity:1;" d="M 521.976562 501.425781 C 520.96875 500.871094 519.996094 500.253906 519.070312 499.566406 C 518.140625 498.882812 517.261719 498.140625 516.433594 497.339844 C 515.605469 496.535156 514.832031 495.683594 514.117188 494.777344 C 513.402344 493.871094 512.753906 492.921875 512.164062 491.929688 C 511.578125 490.9375 511.058594 489.910156 510.609375 488.847656 C 510.15625 487.789062 509.78125 486.699219 509.476562 485.589844 C 509.171875 484.476562 508.941406 483.347656 508.789062 482.203125 C 508.632812 481.0625 508.558594 479.914062 508.558594 478.761719 C 508.558594 477.605469 508.632812 476.457031 508.789062 475.316406 C 508.941406 474.171875 509.171875 473.046875 509.476562 471.933594 C 509.78125 470.820312 510.15625 469.734375 510.609375 468.671875 C 511.058594 467.609375 511.578125 466.582031 512.164062 465.589844 C 512.753906 464.597656 513.402344 463.648438 514.117188 462.742188 C 514.832031 461.839844 515.605469 460.984375 516.433594 460.183594 C 517.261719 459.378906 518.140625 458.636719 519.070312 457.953125 C 519.996094 457.269531 520.96875 456.648438 521.976562 456.09375 L 521.976562 337.640625 L 486 358.382812 L 486 605.859375 L 406.019531 652.0625 L 406.019531 693.644531 L 521.96875 626.714844 Z M 521.976562 501.425781 "/><g clip-rule="nonzero" clip-path="url(#9492418b6d)"><path style=" stroke:none;fill-rule:nonzero;fill:#2ecc71;fill-opacity:1;" d="M 406.027344 764.128906 L 717.445312 584.347656 L 717.445312 542.773438 C 616.554688 601.023438 505.566406 665.117188 406.046875 722.546875 Z M 406.027344 764.128906 "/></g></g></svg>