<svg xmlns="http://www.w3.org/2000/svg" xmlns:xlink="http://www.w3.org/1999/xlink" width="200px" height="186px" viewBox="20 10 155 135"><g id="surface1"><path style=" stroke:none;fill-rule:nonzero;fill:rgb(100%,100%,100%);fill-opacity:1;" d="M 39.242188 89.175781 L 39.242188 143.90625 L 156.386719 143.90625 L 156.386719 34.445312 L 39.242188 34.445312 Z M 156.140625 89.175781 L 156.140625 143.738281 L 39.40625 143.738281 L 39.40625 89.234375 C 39.40625 59.25 39.429688 34.691406 39.464844 34.667969 C 39.488281 34.636719 65.761719 34.609375 97.832031 34.609375 L 156.140625 34.609375 Z M 156.140625 89.175781 "></path><path style=" stroke:none;fill-rule:nonzero;fill:rgb(100%,100%,100%);fill-opacity:1;" d="M 52.3125 46.683594 C 52.417969 46.972656 89.761719 118.484375 89.792969 118.484375 C 89.816406 118.484375 91.625 115.058594 93.808594 110.867188 C 95.988281 106.6875 97.804688 103.265625 97.839844 103.273438 C 97.871094 103.285156 99.699219 106.710938 101.886719 110.894531 C 104.070312 115.066406 105.886719 118.460938 105.917969 118.417969 C 105.984375 118.34375 143.136719 46.964844 143.21875 46.757812 C 143.269531 46.625 143.0625 46.617188 139.320312 46.632812 L 135.371094 46.65625 L 124.863281 66.859375 L 120.863281 66.886719 C 118.667969 66.894531 116.839844 66.875 116.816406 66.84375 C 116.78125 66.800781 118.78125 62.886719 121.253906 58.125 C 123.722656 53.363281 126.078125 48.828125 126.480469 48.039062 L 127.226562 46.617188 L 123.285156 46.617188 L 119.335938 46.625 L 108.605469 67.242188 C 99.65625 84.429688 97.847656 87.839844 97.765625 87.734375 C 97.714844 87.660156 92.847656 78.378906 86.949219 67.109375 L 76.226562 46.617188 L 68.3125 46.617188 L 68.453125 46.882812 C 68.527344 47.03125 74.171875 57.828125 80.984375 70.875 C 87.800781 83.925781 93.484375 94.820312 93.617188 95.09375 L 93.867188 95.601562 L 91.859375 99.425781 C 90.75 101.527344 89.824219 103.25 89.800781 103.25 C 89.777344 103.25 83.101562 90.507812 74.972656 74.933594 L 60.183594 46.617188 L 56.234375 46.617188 C 54.0625 46.617188 52.292969 46.648438 52.3125 46.683594 Z M 120.195312 75.820312 C 112.757812 90.117188 105.96875 103.144531 105.917969 103.191406 C 105.878906 103.234375 105.042969 101.703125 104.050781 99.796875 C 103.0625 97.894531 102.160156 96.164062 102.054688 95.949219 L 101.847656 95.566406 L 106.984375 85.640625 C 109.808594 80.183594 112.289062 75.414062 112.496094 75.03125 L 112.859375 74.355469 L 120.953125 74.355469 Z M 120.195312 75.820312 "></path><path style=" stroke:none;fill-rule:nonzero;fill:rgb(100%,100%,100%);fill-opacity:1;" d="M 48.988281 125.414062 C 48.988281 125.457031 49.511719 127.039062 50.15625 128.933594 L 51.328125 132.394531 L 52.089844 132.394531 L 52.78125 130.382812 C 54.21875 126.226562 54.128906 126.441406 54.246094 126.722656 C 54.300781 126.863281 54.765625 128.191406 55.277344 129.679688 L 56.210938 132.394531 L 56.988281 132.394531 L 58.152344 128.953125 C 58.789062 127.054688 59.316406 125.472656 59.316406 125.425781 C 59.316406 125.382812 59.160156 125.359375 58.976562 125.375 L 58.640625 125.398438 L 57.640625 128.355469 C 57.085938 129.988281 56.613281 131.320312 56.589844 131.320312 C 56.566406 131.320312 56.09375 129.988281 55.550781 128.355469 L 54.542969 125.398438 L 54.1875 125.375 L 53.824219 125.351562 L 52.796875 128.339844 C 52.238281 129.988281 51.75 131.292969 51.714844 131.261719 C 51.683594 131.226562 51.21875 129.878906 50.683594 128.273438 L 49.71875 125.359375 L 49.351562 125.359375 C 49.15625 125.359375 48.988281 125.382812 48.988281 125.414062 Z M 48.988281 125.414062 "></path><path style=" stroke:none;fill-rule:nonzero;fill:rgb(100%,100%,100%);fill-opacity:1;" d="M 62.785156 128.875 L 62.785156 132.394531 L 63.53125 132.394531 L 63.53125 129.167969 L 67.910156 129.167969 L 67.910156 132.394531 L 68.652344 132.394531 L 68.652344 125.359375 L 67.910156 125.359375 L 67.910156 128.585938 L 63.53125 128.585938 L 63.53125 125.359375 L 62.785156 125.359375 Z M 62.785156 128.875 "></path><path style=" stroke:none;fill-rule:nonzero;fill:rgb(100%,100%,100%);fill-opacity:1;" d="M 72.949219 128.875 L 72.949219 132.394531 L 73.691406 132.394531 L 73.691406 125.359375 L 72.949219 125.359375 Z M 72.949219 128.875 "></path><path style=" stroke:none;fill-rule:nonzero;fill:rgb(100%,100%,100%);fill-opacity:1;" d="M 76.914062 125.648438 L 76.914062 125.9375 L 79.308594 125.9375 L 79.308594 132.394531 L 80.050781 132.394531 L 80.070312 129.183594 L 80.09375 125.980469 L 81.316406 125.953125 L 82.53125 125.929688 L 82.53125 125.359375 L 76.914062 125.359375 Z M 76.914062 125.648438 "></path><path style=" stroke:none;fill-rule:nonzero;fill:rgb(100%,100%,100%);fill-opacity:1;" d="M 85.753906 128.875 L 85.753906 132.394531 L 90.710938 132.394531 L 90.710938 131.816406 L 86.496094 131.816406 L 86.496094 129.167969 L 90.132812 129.167969 L 90.132812 128.585938 L 86.496094 128.585938 L 86.496094 125.9375 L 90.542969 125.9375 L 90.542969 125.359375 L 85.753906 125.359375 Z M 85.753906 128.875 "></path><path style=" stroke:none;fill-rule:nonzero;fill:rgb(100%,100%,100%);fill-opacity:1;" d="M 99.054688 128.875 L 99.054688 132.394531 L 99.796875 132.394531 L 99.796875 129.167969 L 104.175781 129.167969 L 104.175781 132.394531 L 104.917969 132.394531 L 104.917969 125.359375 L 104.175781 125.359375 L 104.175781 128.585938 L 99.796875 128.585938 L 99.796875 125.359375 L 99.054688 125.359375 Z M 99.054688 128.875 "></path><path style=" stroke:none;fill-rule:nonzero;fill:rgb(100%,100%,100%);fill-opacity:1;" d="M 110.941406 125.546875 C 109.925781 125.894531 109.199219 126.617188 108.792969 127.667969 C 108.660156 128.015625 108.613281 128.3125 108.613281 128.875 C 108.613281 130.078125 109.074219 131.039062 109.984375 131.699219 C 111.230469 132.628906 113.214844 132.644531 114.503906 131.75 C 115.039062 131.367188 115.59375 130.597656 115.78125 129.96875 C 115.949219 129.414062 115.949219 128.339844 115.78125 127.785156 C 115.476562 126.757812 114.570312 125.855469 113.519531 125.523438 C 112.777344 125.292969 111.667969 125.300781 110.941406 125.546875 Z M 113.625 126.261719 C 114.757812 126.816406 115.378906 128.058594 115.164062 129.355469 C 115.007812 130.34375 114.476562 131.078125 113.609375 131.5 C 113.105469 131.75 113 131.773438 112.273438 131.773438 C 111.59375 131.773438 111.421875 131.742188 111.023438 131.558594 C 110.371094 131.253906 109.925781 130.8125 109.613281 130.175781 C 109.363281 129.679688 109.339844 129.554688 109.339844 128.875 C 109.339844 128.246094 109.371094 128.058594 109.554688 127.675781 C 110.097656 126.5 111.082031 125.914062 112.414062 125.960938 C 112.964844 125.988281 113.171875 126.035156 113.625 126.261719 Z M 113.625 126.261719 "></path><path style=" stroke:none;fill-rule:nonzero;fill:rgb(100%,100%,100%);fill-opacity:1;" d="M 119.625 128.875 L 119.625 132.394531 L 120.285156 132.394531 L 120.285156 129.664062 C 120.285156 128.15625 120.308594 126.929688 120.351562 126.929688 C 120.382812 126.929688 121.003906 127.957031 121.730469 129.207031 C 122.9375 131.277344 123.070312 131.484375 123.257812 131.460938 C 123.433594 131.445312 123.65625 131.113281 124.789062 129.191406 C 125.515625 127.957031 126.132812 126.914062 126.175781 126.882812 C 126.210938 126.847656 126.234375 128.074219 126.234375 129.605469 L 126.234375 132.394531 L 126.894531 132.394531 L 126.894531 125.359375 L 126.589844 125.359375 L 126.273438 125.367188 L 124.789062 127.964844 C 123.65625 129.9375 123.277344 130.53125 123.21875 130.449219 C 123.167969 130.390625 122.484375 129.226562 121.691406 127.851562 L 120.246094 125.367188 L 119.9375 125.359375 L 119.625 125.359375 Z M 119.625 128.875 "></path><path style=" stroke:none;fill-rule:nonzero;fill:rgb(100%,100%,100%);fill-opacity:1;" d="M 131.273438 128.875 L 131.273438 132.394531 L 136.230469 132.394531 L 136.230469 131.816406 L 132.015625 131.816406 L 132.015625 129.167969 L 135.652344 129.167969 L 135.652344 128.585938 L 132.015625 128.585938 L 132.015625 125.9375 L 136.066406 125.9375 L 136.066406 125.359375 L 131.273438 125.359375 Z M 131.273438 128.875 "></path><path style=" stroke:none;fill-rule:nonzero;fill:rgb(100%,100%,100%);fill-opacity:1;" d="M 140.796875 125.515625 C 139.855469 125.839844 139.410156 126.46875 139.46875 127.378906 C 139.492188 127.792969 139.550781 127.964844 139.726562 128.199219 C 140.054688 128.636719 140.386719 128.800781 141.691406 129.175781 C 142.34375 129.355469 143.019531 129.597656 143.195312 129.6875 C 143.988281 130.136719 143.914062 131.152344 143.046875 131.601562 C 142.773438 131.742188 142.566406 131.773438 141.929688 131.773438 C 141.011719 131.765625 140.65625 131.675781 140.003906 131.285156 L 139.535156 130.996094 L 139.402344 131.261719 C 139.261719 131.519531 139.269531 131.519531 139.535156 131.742188 C 139.996094 132.132812 140.640625 132.328125 141.589844 132.378906 C 143.0625 132.445312 143.871094 132.121094 144.277344 131.304688 C 144.640625 130.582031 144.53125 129.871094 143.996094 129.382812 C 143.589844 129.019531 143.300781 128.894531 142.09375 128.570312 C 140.550781 128.164062 140.195312 127.898438 140.195312 127.171875 C 140.195312 126.632812 140.527344 126.242188 141.128906 126.0625 C 141.878906 125.839844 142.988281 125.960938 143.648438 126.359375 C 143.796875 126.441406 143.9375 126.515625 143.953125 126.515625 C 143.996094 126.515625 144.1875 125.929688 144.144531 125.90625 C 144.027344 125.796875 143.46875 125.566406 143.128906 125.472656 C 142.523438 125.308594 141.320312 125.332031 140.796875 125.515625 Z M 140.796875 125.515625 "></path></g></svg>